<?xml version="1.0" encoding="utf-8"?>
<!-- Generator: Adobe Illustrator 26.0.3, SVG Export Plug-In . SVG Version: 6.00 Build 0)  -->
<svg version="1.1" id="Layer_1" xmlns="http://www.w3.org/2000/svg" xmlns:xlink="http://www.w3.org/1999/xlink" x="0px" y="0px"
	 viewBox="0 0 47 40" style="enable-background:new 0 0 47 40;" xml:space="preserve">
<style type="text/css">
	.st0{fill:#566246;}
</style>
<path class="st0" d="M23.5,6.5c-6,0-9.8,3-11.2,9c2.2-3,4.9-4.1,7.9-3.4c1.7,0.4,2.9,1.7,4.3,3c2.2,2.2,4.8,4.8,10.3,4.8
	c6,0,9.8-3,11.2-9c-2.2,3-4.9,4.1-7.9,3.4c-1.7-0.4-2.9-1.7-4.3-3C31.6,9.1,29.1,6.5,23.5,6.5z M12.2,20c-6,0-9.8,3-11.2,9
	c2.2-3,4.9-4.1,7.9-3.4c1.7,0.4,2.9,1.7,4.3,3c2.2,2.2,4.8,4.8,10.3,4.8c6,0,9.8-3,11.2-9c-2.2,3-4.9,4.1-7.9,3.4
	c-1.7-0.4-2.9-1.7-4.3-3C20.4,22.6,17.8,20,12.2,20z"/>
</svg>
